<?xml version="1.0" encoding="UTF-8"?>
<svg id="Layer_2" data-name="Layer 2" xmlns="http://www.w3.org/2000/svg" viewBox="0 0 1366 768">
  <defs>
    <style>
      .cls-1 {
        fill: #f6f6f6;
      }
    </style>
  </defs>
  <path class="cls-1" d="M185.57,496.21l-1.17-6.02c-1.41-7.27-7.1-12.96-14.37-14.37l-6.02-1.17c-2.99-.58-2.99-4.87,0-5.45l6.02-1.17c7.27-1.41,12.96-7.1,14.37-14.37l1.17-6.02c.58-2.99,4.87-2.99,5.45,0l1.17,6.02c1.41,7.27,7.1,12.96,14.37,14.37l6.02,1.17c2.99.58,2.99,4.87,0,5.45l-6.02,1.17c-7.27,1.41-12.96,7.1-14.37,14.37l-1.17,6.02c-.58,2.99-4.87,2.99-5.45,0Z"/>
  <path class="cls-1" d="M183.38,418.56l-.81-4.16c-.98-5.02-4.9-8.95-9.93-9.93l-4.16-.81c-2.07-.4-2.07-3.36,0-3.76l4.16-.81c5.02-.98,8.95-4.9,9.93-9.93l.81-4.16c.4-2.07,3.36-2.07,3.76,0l.81,4.16c.98,5.02,4.9,8.95,9.93,9.93l4.16.81c2.07.4,2.07,3.36,0,3.76l-4.16.81c-5.02.98-8.95,4.9-9.93,9.93l-.81,4.16c-.4,2.07-3.36,2.07-3.76,0Z"/>
  <path class="cls-1" d="M138.42,320.83l-.55-2.83c-.66-3.42-3.33-6.09-6.75-6.75l-2.83-.55c-1.41-.27-1.41-2.29,0-2.56l2.83-.55c3.42-.66,6.09-3.33,6.75-6.75l.55-2.83c.27-1.41,2.29-1.41,2.56,0l.55,2.83c.66,3.42,3.33,6.09,6.75,6.75l2.83.55c1.41.27,1.41,2.29,0,2.56l-2.83.55c-3.42.66-6.09,3.33-6.75,6.75l-.55,2.83c-.27,1.41-2.29,1.41-2.56,0Z"/>
  <path class="cls-1" d="M152.78,210.58l-.49-2.5c-.59-3.03-2.96-5.39-5.98-5.98l-2.5-.49c-1.25-.24-1.25-2.03,0-2.27l2.5-.49c3.03-.59,5.39-2.96,5.98-5.98l.49-2.5c.24-1.25,2.03-1.25,2.27,0l.49,2.5c.59,3.03,2.96,5.39,5.98,5.98l2.5.49c1.25.24,1.25,2.03,0,2.27l-2.5.49c-3.03.59-5.39,2.96-5.98,5.98l-.49,2.5c-.24,1.25-2.03,1.25-2.27,0Z"/>
  <path class="cls-1" d="M173.08,189.43l-.49-2.5c-.59-3.03-2.96-5.39-5.98-5.98l-2.5-.49c-1.25-.24-1.25-2.03,0-2.27l2.5-.49c3.03-.59,5.39-2.96,5.98-5.98l.49-2.5c.24-1.25,2.03-1.25,2.27,0l.49,2.5c.59,3.03,2.96,5.39,5.98,5.98l2.5.49c1.25.24,1.25,2.03,0,2.27l-2.5.49c-3.03.59-5.39,2.96-5.98,5.98l-.49,2.5c-.24,1.25-2.03,1.25-2.27,0Z"/>
  <path class="cls-1" d="M314.92,242.04l-.49-2.5c-.59-3.03-2.96-5.39-5.98-5.98l-2.5-.49c-1.25-.24-1.25-2.03,0-2.27l2.5-.49c3.03-.59,5.39-2.96,5.98-5.98l.49-2.5c.24-1.25,2.03-1.25,2.27,0l.49,2.5c.59,3.03,2.96,5.39,5.98,5.98l2.5.49c1.25.24,1.25,2.03,0,2.27l-2.5.49c-3.03.59-5.39,2.96-5.98,5.98l-.49,2.5c-.24,1.25-2.03,1.25-2.27,0Z"/>
  <path class="cls-1" d="M368.26,263.78l-.49-2.5c-.59-3.03-2.96-5.39-5.98-5.98l-2.5-.49c-1.25-.24-1.25-2.03,0-2.27l2.5-.49c3.03-.59,5.39-2.96,5.98-5.98l.49-2.5c.24-1.25,2.03-1.25,2.27,0l.49,2.5c.59,3.03,2.96,5.39,5.98,5.98l2.5.49c1.25.24,1.25,2.03,0,2.27l-2.5.49c-3.03.59-5.39,2.96-5.98,5.98l-.49,2.5c-.24,1.25-2.03,1.25-2.27,0Z"/>
  <path class="cls-1" d="M299.16,374.54l-.41-2.12c-.5-2.56-2.5-4.57-5.06-5.06l-2.12-.41c-1.06-.21-1.06-1.71,0-1.92l2.12-.41c2.56-.5,4.57-2.5,5.06-5.06l.41-2.12c.21-1.06,1.71-1.06,1.92,0l.41,2.12c.5,2.56,2.5,4.57,5.06,5.06l2.12.41c1.06.21,1.06,1.71,0,1.92l-2.12.41c-2.56.5-4.57,2.5-5.06,5.06l-.41,2.12c-.21,1.06-1.71,1.06-1.92,0Z"/>
  <path class="cls-1" d="M225.27,647.79l-.57-2.91c-.68-3.52-3.44-6.27-6.96-6.96l-2.91-.57c-1.45-.28-1.45-2.36,0-2.64l2.91-.57c3.52-.68,6.27-3.44,6.96-6.96l.57-2.91c.28-1.45,2.36-1.45,2.64,0l.57,2.91c.68,3.52,3.44,6.27,6.96,6.96l2.91.57c1.45.28,1.45,2.36,0,2.64l-2.91.57c-3.52.68-6.27,3.44-6.96,6.96l-.57,2.91c-.28,1.45-2.36,1.45-2.64,0Z"/>
  <path class="cls-1" d="M178.24,619.52l-.41-2.12c-.5-2.56-2.5-4.57-5.06-5.06l-2.12-.41c-1.06-.21-1.06-1.71,0-1.92l2.12-.41c2.56-.5,4.57-2.5,5.06-5.06l.41-2.12c.21-1.06,1.71-1.06,1.92,0l.41,2.12c.5,2.56,2.5,4.57,5.06,5.06l2.12.41c1.06.21,1.06,1.71,0,1.92l-2.12.41c-2.56.5-4.57,2.5-5.06,5.06l-.41,2.12c-.21,1.06-1.71,1.06-1.92,0Z"/>
  <path class="cls-1" d="M500.75,463.02l-1.07-5.5c-1.29-6.65-6.49-11.84-13.14-13.14l-5.5-1.07c-2.74-.53-2.74-4.45,0-4.98l5.5-1.07c6.65-1.29,11.84-6.49,13.14-13.14l1.07-5.5c.53-2.74,4.45-2.74,4.98,0l1.07,5.5c1.29,6.65,6.49,11.84,13.14,13.14l5.5,1.07c2.74.53,2.74,4.45,0,4.98l-5.5,1.07c-6.65,1.29-11.84,6.49-13.14,13.14l-1.07,5.5c-.53,2.74-4.45,2.74-4.98,0Z"/>
  <path class="cls-1" d="M531.56,433.48l-.41-2.12c-.5-2.56-2.5-4.57-5.06-5.06l-2.12-.41c-1.06-.21-1.06-1.71,0-1.92l2.12-.41c2.56-.5,4.57-2.5,5.06-5.06l.41-2.12c.21-1.06,1.71-1.06,1.92,0l.41,2.12c.5,2.56,2.5,4.57,5.06,5.06l2.12.41c1.06.21,1.06,1.71,0,1.92l-2.12.41c-2.56.5-4.57,2.5-5.06,5.06l-.41,2.12c-.21,1.06-1.71,1.06-1.92,0Z"/>
  <path class="cls-1" d="M535.34,410.34l-.41-2.12c-.5-2.56-2.5-4.57-5.06-5.06l-2.12-.41c-1.06-.21-1.06-1.71,0-1.92l2.12-.41c2.56-.5,4.57-2.5,5.06-5.06l.41-2.12c.21-1.06,1.71-1.06,1.92,0l.41,2.12c.5,2.56,2.5,4.57,5.06,5.06l2.12.41c1.06.21,1.06,1.71,0,1.92l-2.12.41c-2.56.5-4.57,2.5-5.06,5.06l-.41,2.12c-.21,1.06-1.71,1.06-1.92,0Z"/>
  <path class="cls-1" d="M552.69,424.62l-.41-2.12c-.5-2.56-2.5-4.57-5.06-5.06l-2.12-.41c-1.06-.21-1.06-1.71,0-1.92l2.12-.41c2.56-.5,4.57-2.5,5.06-5.06l.41-2.12c.21-1.06,1.71-1.06,1.92,0l.41,2.12c.5,2.56,2.5,4.57,5.06,5.06l2.12.41c1.06.21,1.06,1.71,0,1.92l-2.12.41c-2.56.5-4.57,2.5-5.06,5.06l-.41,2.12c-.21,1.06-1.71,1.06-1.92,0Z"/>
  <path class="cls-1" d="M505.57,287.52l-.41-2.12c-.5-2.56-2.5-4.57-5.06-5.06l-2.12-.41c-1.06-.21-1.06-1.71,0-1.92l2.12-.41c2.56-.5,4.57-2.5,5.06-5.06l.41-2.12c.21-1.06,1.71-1.06,1.92,0l.41,2.12c.5,2.56,2.5,4.57,5.06,5.06l2.12.41c1.06.21,1.06,1.71,0,1.92l-2.12.41c-2.56.5-4.57,2.5-5.06,5.06l-.41,2.12c-.21,1.06-1.71,1.06-1.92,0Z"/>
  <path class="cls-1" d="M566.32,299.82l-.33-1.82c-.4-2.18-2.08-3.91-4.25-4.36l-1.78-.37c-.88-.18-.88-1.45,0-1.63l1.78-.37c2.17-.45,3.86-2.18,4.25-4.36l.33-1.82c.17-.91,1.47-.91,1.64,0l.33,1.82c.4,2.18,2.08,3.91,4.25,4.36l1.78.37c.88.18.88,1.45,0,1.63l-1.78.37c-2.17.45-3.86,2.18-4.25,4.36l-.33,1.82c-.17.91-1.47.91-1.64,0Z"/>
  <path class="cls-1" d="M722.84,584.78l-1.07-5.5c-1.29-6.65-6.49-11.84-13.14-13.14l-5.5-1.07c-2.74-.53-2.74-4.45,0-4.98l5.5-1.07c6.65-1.29,11.84-6.49,13.14-13.14l1.07-5.5c.53-2.74,4.45-2.74,4.98,0l1.07,5.5c1.29,6.65,6.49,11.84,13.14,13.14l5.5,1.07c2.74.53,2.74,4.45,0,4.98l-5.5,1.07c-6.65,1.29-11.84,6.49-13.14,13.14l-1.07,5.5c-.53,2.74-4.45,2.74-4.98,0Z"/>
  <path class="cls-1" d="M997.49,446.51l-1.68-6.12c-1.01-3.68-3.88-6.56-7.57-7.57l-6.12-1.68c-1.62-.44-1.62-2.74,0-3.18l6.12-1.68c3.68-1.01,6.56-3.88,7.57-7.57l1.68-6.12c.44-1.62,2.74-1.62,3.18,0l1.68,6.12c1.01,3.68,3.88,6.56,7.57,7.57l6.12,1.68c1.62.44,1.62,2.74,0,3.18l-6.12,1.68c-3.68,1.01-6.56,3.88-7.57,7.57l-1.68,6.12c-.44,1.62-2.74,1.62-3.18,0Z"/>
  <path class="cls-1" d="M1012.05,296.43l-.59-3.03c-.71-3.66-3.58-6.52-7.24-7.24l-3.03-.59c-1.51-.29-1.51-2.45,0-2.74l3.03-.59c3.66-.71,6.52-3.58,7.24-7.24l.59-3.03c.29-1.51,2.45-1.51,2.74,0l.59,3.03c.71,3.66,3.58,6.52,7.24,7.24l3.03.59c1.51.29,1.51,2.45,0,2.74l-3.03.59c-3.66.71-6.52,3.58-7.24,7.24l-.59,3.03c-.29,1.51-2.45,1.51-2.74,0Z"/>
  <path class="cls-1" d="M937.23,146.94l-.59-3.03c-.71-3.66-3.58-6.52-7.24-7.24l-3.03-.59c-1.51-.29-1.51-2.45,0-2.74l3.03-.59c3.66-.71,6.52-3.58,7.24-7.24l.59-3.03c.29-1.51,2.45-1.51,2.74,0l.59,3.03c.71,3.66,3.58,6.52,7.24,7.24l3.03.59c1.51.29,1.51,2.45,0,2.74l-3.03.59c-3.66.71-6.52,3.58-7.24,7.24l-.59,3.03c-.29,1.51-2.45,1.51-2.74,0Z"/>
  <path class="cls-1" d="M818.94,231.22l-.77-3.94c-.93-4.77-4.65-8.49-9.42-9.42l-3.94-.77c-1.96-.38-1.96-3.19,0-3.57l3.94-.77c4.77-.93,8.49-4.65,9.42-9.42l.77-3.94c.38-1.96,3.19-1.96,3.57,0l.77,3.94c.93,4.77,4.65,8.49,9.42,9.42l3.94.77c1.96.38,1.96,3.19,0,3.57l-3.94.77c-4.77.93-8.49,4.65-9.42,9.42l-.77,3.94c-.38,1.96-3.19,1.96-3.57,0Z"/>
  <path class="cls-1" d="M807.62,71.69l-.59-3.03c-.71-3.66-3.58-6.52-7.24-7.24l-3.03-.59c-1.51-.29-1.51-2.45,0-2.74l3.03-.59c3.66-.71,6.52-3.58,7.24-7.24l.59-3.03c.29-1.51,2.45-1.51,2.74,0l.59,3.03c.71,3.66,3.58,6.52,7.24,7.24l3.03.59c1.51.29,1.51,2.45,0,2.74l-3.03.59c-3.66.71-6.52,3.58-7.24,7.24l-.59,3.03c-.29,1.51-2.45,1.51-2.74,0Z"/>
  <path class="cls-1" d="M777.81,104.33l-.59-3.03c-.71-3.66-3.58-6.52-7.24-7.24l-3.03-.59c-1.51-.29-1.51-2.45,0-2.74l3.03-.59c3.66-.71,6.52-3.58,7.24-7.24l.59-3.03c.29-1.51,2.45-1.51,2.74,0l.59,3.03c.71,3.66,3.58,6.52,7.24,7.24l3.03.59c1.51.29,1.51,2.45,0,2.74l-3.03.59c-3.66.71-6.52,3.58-7.24,7.24l-.59,3.03c-.29,1.51-2.45,1.51-2.74,0Z"/>
  <path class="cls-1" d="M600.24,100.77l-.49-2.61c-.59-3.14-3.03-5.6-6.17-6.23l-2.58-.52c-1.28-.26-1.28-2.09,0-2.35l2.58-.52c3.13-.63,5.57-3.09,6.17-6.23l.49-2.61c.25-1.3,2.11-1.3,2.35,0l.49,2.61c.59,3.14,3.03,5.6,6.17,6.23l2.58.52c1.28.26,1.28,2.09,0,2.35l-2.58.52c-3.13.63-5.57,3.09-6.17,6.23l-.49,2.61c-.25,1.3-2.11,1.3-2.35,0Z"/>
  <path class="cls-1" d="M893.2,142.66l-.49-2.61c-.59-3.14-3.03-5.6-6.17-6.23l-2.58-.52c-1.28-.26-1.28-2.09,0-2.35l2.58-.52c3.13-.63,5.57-3.09,6.17-6.23l.49-2.61c.25-1.3,2.11-1.3,2.35,0l.49,2.61c.59,3.14,3.03,5.6,6.17,6.23l2.58.52c1.28.26,1.28,2.09,0,2.35l-2.58.52c-3.13.63-5.57,3.09-6.17,6.23l-.49,2.61c-.25,1.3-2.11,1.3-2.35,0Z"/>
  <path class="cls-1" d="M527.6,39.21l-.49-2.61c-.59-3.14-3.03-5.6-6.17-6.23l-2.58-.52c-1.28-.26-1.28-2.09,0-2.35l2.58-.52c3.13-.63,5.57-3.09,6.17-6.23l.49-2.61c.25-1.3,2.11-1.3,2.35,0l.49,2.61c.59,3.14,3.03,5.6,6.17,6.23l2.58.52c1.28.26,1.28,2.09,0,2.35l-2.58.52c-3.13.63-5.57,3.09-6.17,6.23l-.49,2.61c-.25,1.3-2.11,1.3-2.35,0Z"/>
  <path class="cls-1" d="M703.2,319.56l-.49-2.61c-.59-3.14-3.03-5.6-6.17-6.23l-2.58-.52c-1.28-.26-1.28-2.09,0-2.35l2.58-.52c3.13-.63,5.57-3.09,6.17-6.23l.49-2.61c.25-1.3,2.11-1.3,2.35,0l.49,2.61c.59,3.14,3.03,5.6,6.17,6.23l2.58.52c1.28.26,1.28,2.09,0,2.35l-2.58.52c-3.13.63-5.57,3.09-6.17,6.23l-.49,2.61c-.25,1.3-2.11,1.3-2.35,0Z"/>
  <path class="cls-1" d="M751.38,363.67l-.41-2.18c-.5-2.62-2.53-4.68-5.15-5.2l-2.16-.43c-1.07-.21-1.07-1.75,0-1.96l2.16-.43c2.62-.52,4.65-2.58,5.15-5.2l.41-2.18c.21-1.08,1.76-1.08,1.96,0l.41,2.18c.5,2.62,2.53,4.68,5.15,5.2l2.16.43c1.07.21,1.07,1.75,0,1.96l-2.16.43c-2.62.52-4.65,2.58-5.15,5.2l-.41,2.18c-.21,1.08-1.76,1.08-1.96,0Z"/>
  <path class="cls-1" d="M734.89,387.05l-.49-2.61c-.59-3.14-3.03-5.6-6.17-6.23l-2.58-.52c-1.28-.26-1.28-2.09,0-2.35l2.58-.52c3.13-.63,5.57-3.09,6.17-6.23l.49-2.61c.25-1.3,2.11-1.3,2.35,0l.49,2.61c.59,3.14,3.03,5.6,6.17,6.23l2.58.52c1.28.26,1.28,2.09,0,2.35l-2.58.52c-3.13.63-5.57,3.09-6.17,6.23l-.49,2.61c-.25,1.3-2.11,1.3-2.35,0Z"/>
</svg>