<?xml version="1.0" encoding="UTF-8"?>
<svg id="foxgirl" xmlns="http://www.w3.org/2000/svg" viewBox="0 0 1369.87 768">
  <defs>
    <style>
      .cls-1 {
        fill: #606060;
      }

      .cls-2 {
        fill: #333;
      }

      .cls-3 {
        fill: #555;
      }

      .cls-4 {
        fill: #555;
      }
    </style>
  </defs>
  <rect class="cls-2" x="-619.94" y="717.02" width="2727.92" height="161.66"/>
  <g>
    <path class="cls-2" d="M2048.91,641.67c-135.61,13.53-260.99,18.22-378.81,17.68-293.48-1.35-294.64-33.98-533.14-33.99-236.81,0-250.05,32.17-520.66,33.94-109.92.72-66.8-4.86-413.45-21.04-356.65-16.65-511.85-15.87-682.83,0-55.81,5.18-103.79,11.08-140.39,16.08v94.35h2728.34v-113.39c-18.31,2.13-38.06,4.29-59.06,6.39Z"/>
    <path class="cls-1" d="M874.64,543.33c-14.28-1.79-10.98-19.49-11.4-29.54-.22-5.37-.27-11.96-.89-17.21-.55-4.64-2.54-8.43-2.03-13.25,1.41-13.32,16.02-20.79,28.32-18.22,3.77.79,5.13.34,8.85.63,11.92.94,13.01,13.38,17.36,21.86,3.34,6.53,10.03,11.77,12.34,18.68,1.62,4.86,2.15,11.45-1.49,15.49,10.13,3.82,17.45,12.51,23.19,21.42,13.73,21.32,16.38,48.37,13.44,73.18-1.24,10.43-3.84,19.6-12.78,26l-4.45,2.66c2.9.89,5.2,2.94,8.41,2.6,4.23-.44,5.5-5.55,10.74-4.72,3.37.53,9.04,7.62,12.43,9.98,4.52,3.14,8.93,3.39,13.21,6.18,3.69,2.41,7.83,8.52,8.17,12.96.53,6.81-2.66,3.92-6.41,2.95-24.93-6.43-52.35-17.21-78.15-13.5-16.42,2.36-43.73,12.57-58.88,8.33-8.25-2.31-18.03-10.59-14.54-20.14.45-1.22,1.29-1.71,1.69-2.62.19-.43.6-.54-.08-.94-.95-.56-3.21-.71-4.31-1.5.47,1.06.29,2.67-.86,3.23-.71.34-7.77.4-8.82.2-4.44-.84-4.37-13.27-2.98-16.32.93-2.04,5.22-7.09,5.55-8.61.56-2.63-2.48-6.12-.85-11.26,2.03-6.39,7.09-8.34,13.06-9.78,3.02-.73,10.62-1.17,12.55-2.1,2.13-1.02,11.81-9.34,14.02-11.41,6.65-6.25,8.2-14.09,9.94-22.81,1.48-7.43,2.3-14.83,1.92-22.43-1.99-.18-4.31.24-6.25,0ZM902.6,579.81c-2.1-2.93-2.87-7.11-3.93-10.51l-.96-7.86c-.32,10.51-4.56,20.71-7.39,30.75l-4.25,7.6,18.47-.49,2.17-16.03c-1.26-1.21-3.06-2.01-4.1-3.46ZM833.91,634.7c-5.82-.31-4.55,5.17-3.44,9.05,2.59-1.95,2.54-6.13,3.44-9.05ZM941.64,644.18c-6.84-.05-14.07.08-20.85-.91-7.07-1.03-14.27-4.18-21.57-4.71-7.29-.53-13.46,1.34-20.06,4.11,4.46-.58,8.66-2.38,13.2-2.75,12.18-.98,21.09,3.94,32.27,5.11,3.9.41,10.27.29,14.23.02.66-.04,2.56-.1,2.78-.87Z"/>
    <path class="cls-4" d="M854.18,669.81c15.15,4.24,42.46-5.97,58.88-8.33,25.8-3.71,53.22,7.07,78.15,13.5,3.75.97,6.94,3.86,6.41-2.95-.34-4.44-4.48-10.54-8.17-12.96-4.28-2.8-8.69-3.05-13.21-6.18-3.39-2.36-9.05-9.45-12.43-9.98-5.24-.82-6.51,4.28-10.74,4.72-3.21.33-5.51-1.71-8.41-2.6l4.44-2.66c3.47-2.48,5.98-5.39,7.83-8.61-17.82,1.83-34.64,3.84-51.41,5.9,5,1.17,9.95,2.9,14.83,3.61,6.78.99,14.01.87,20.85.91-.22.78-2.13.83-2.78.87-3.96.27-10.33.38-14.23-.02-8.21-.86-15.2-3.73-23.15-4.82-19.41,2.4-38.88,4.85-59.9,7.17-.44.71-1.13,1.22-1.51,2.29-3.49,9.55,6.29,17.83,14.54,20.14Z"/>
    <g>
      <path class="cls-3" d="M732.04,629.56c2.65-2.51,4.32-12.81,5.85-13.23,3.45-1.37,15.73,3.2,15.73,3.2-1.39,16.15-18.1,17.4-19.77,19.35-1.67,1.95.28,9.89.7,10.58s1.39.42,3.48,0c2.09-.42,4.87,4.04,3.76,5.85-1.11,1.81-9.47.28-9.75-1.39,0-2.09-2.23-5.71-2.65-9.72-.42-4.02-3.34-8.24-3.2-9.63.14-1.39,3.2-2.51,5.85-5.01Z"/>
      <path class="cls-3" d="M655.32,628.73c.84,2.23,2.92,2.65,2.51,2.78-.42.14-2.51,1.39-.56,3.06,1.95,1.67,6.82,2.23,6.82,2.23,0,0-1.53,1.67.97,2.23,2.51.56,6.68-.7,6.68-.7,0,0-.56,1.95,1.81,1.53,2.37-.42,4.87-2.92,4.87-2.92,0,0,5.85,4.46,12.81-5.15,2.51-2.51,5.29,1.67,11.84-9.75,1.23-.22,7.28-10.36,11.29-15.68-.5,3.95-.75,7.77-1.39,10.87-1.93,9.32-10.61,10.29-12.06,12.38-1.45,2.09-2.41,9.65-2.41,12.54s-2.41,7.72-2.41,10.77c0,3.05,8.36,6.11,10.13,3.05s-2.57-5.63-2.57-5.63c0,0-.48-10.93,1.29-13.99,1.77-3.05,4.02-1.29,12.86-3.54,8.84-2.25,15.76-15.43,19.13-17.68,4.32-2.88,36.32,10.45,36.32,10.45,0,0,.17,6.43.01,10.29-.16,3.86,1.61,20.26,2.41,22.19s0,6.75,1.77,7.88c1.77,1.13,11.09.32,11.09.32,0,0,9,2.25,10.61-1.29,1.61-3.54-2.89-5.63-2.89-6.43.32-3.38.32-14.31.32-14.31,0,0,2.09-15.76,3.26-18.01,0,0,3.64-2.75,7.37-7.18,3.74-4.42,4.92-11.7,4.92-11.7,0,0,.69.88,1.77.98,1.08.1.59-1.47.59-1.47,0,0,.79.59,2.16,0,1.38-.59-.1-1.57-.29-3.24-.2-1.67.88-2.46,1.57-5.11.69-2.65,0-4.92,0-4.92,0,0,1.28-.39,2.16-1.38.88-.98-.29-1.67-.29-1.67,0,0,2.56-2.26,3.05-4.03.49-1.77-.69-1.57-.69-1.57l1.28-2.36-2.4-3.34s.53-.79,0-2.06c-.53-1.28-1.54-4.82-1.73-4.62,2.36-3.74,2.26-14.95,0-16.03-2.26-1.08-9.14,7.96-10.03,7.96-4.4-.72-9.93-.48-13.12-.24-3.45-2.66-13.3-10.01-15.24-8.54-2.36,1.79,2.43,16.18,2.43,16.18,0,0-1.29.69-2,1.33-.71.64,1.36,1.57,1.36,1.57,0,0-2.14.43-2.86,1.57-.71,1.14.21,1.72.21,1.72l-1.33.73c-.54.43-.22,1.61.26,2.72-5.31.56-7.49,4.68-7.49,4.68,0,0-33.76-6.43-45.98-.32,0,0-8.09,2.05-13.39,6.5-5.29,4.46-15.04,11.7-23.53,16.15-8.49,4.46-21.44,7.52-21.44,8.63s1.53,1.25,1.53,1.25c0,0-14.2,8.08-13.37,10.3ZM782.89,638.15c.21-2.7,1.04-10.82,1.98-11.03,2.81.21,8.84-1.56,9.47-.62l-6.66,1.87s-.73,6.76-.83,7.49c-.1.73.42,5.1.83,7.28.42,2.18,1.14,15.08.92,16.54-.22,1.46,0,2.5,0,2.5,0,0-3.42-4.16-4.15-6.03-.73-1.87-1.77-15.29-1.56-18Z"/>
    </g>
  </g>
</svg>