<?xml version="1.0" encoding="UTF-8"?>
<svg id="lighthouse" xmlns="http://www.w3.org/2000/svg" viewBox="0 0 1366 768">
  <defs>
    <style>
      .cls-1 {
        fill: #5b5b5b;
      }

      .cls-2 {
        stroke-linecap: round;
      }

      .cls-2, .cls-3, .cls-4, .cls-5 {
        fill: none;
        stroke: #333;
        stroke-miterlimit: 10;
      }

      .cls-2, .cls-4 {
        stroke-width: 1.61px;
      }

      .cls-6 {
        fill: #0d0d0d;
      }

      .cls-3 {
        stroke-width: 1.22px;
      }

      .cls-7 {
        fill: #ffed9f;
      }

      .cls-5 {
        stroke-width: 1.73px;
      }

      .cls-8 {
        fill: #333;
      }
    </style>
  </defs>
  <g>
    <g>
      <polygon class="cls-8" points="1293.78 612.01 1143.29 612.01 1166.05 236.21 1271.02 236.21 1293.78 612.01"/>
      <ellipse class="cls-8" cx="1221.59" cy="330.16" rx="78.3" ry="19.63"/>
      <g>
        <path class="cls-6" d="M1234.24,532.02c.07,8.85-6.07,16.08-13.7,16.08s-13.77-7.24-13.7-16.08c.06-8.76,6.2-15.81,13.7-15.81s13.64,7.04,13.7,15.81Z"/>
        <path class="cls-7" d="M1233.56,440.66c.06,8-5.77,14.53-13.03,14.53s-13.08-6.54-13.03-14.53c.06-7.93,5.89-14.3,13.03-14.3s12.97,6.37,13.03,14.3Z"/>
        <path class="cls-6" d="M1232.95,357.87c.05,7.26-5.5,13.2-12.41,13.2s-12.47-5.93-12.41-13.2,5.61-12.99,12.41-12.99,12.36,5.79,12.41,12.99Z"/>
        <path class="cls-7" d="M1232.39,282.5c.05,6.63-5.26,12.04-11.86,12.04s-11.91-5.41-11.86-12.04c.05-6.57,5.36-11.86,11.86-11.86s11.81,5.29,11.86,11.86Z"/>
      </g>
      <path class="cls-4" d="M1143.29,304.09c0-10.84,35.06-19.63,78.3-19.63s78.3,8.79,78.3,19.63"/>
      <line class="cls-4" x1="1144.15" y1="330.77" x2="1143.29" y2="304.09"/>
      <line class="cls-4" x1="1299.89" y1="304.09" x2="1299.13" y2="330.16"/>
      <ellipse class="cls-8" cx="1221.59" cy="240.87" rx="73.27" ry="19.63"/>
      <path class="cls-4" d="M1148.48,213.52c0-10.84,32.81-19.63,73.27-19.63s73.27,8.79,73.27,19.63"/>
      <line class="cls-4" x1="1148.47" y1="213.52" x2="1148.31" y2="240.87"/>
      <line class="cls-4" x1="1295.02" y1="213.52" x2="1294.86" y2="240.87"/>
      <line class="cls-4" x1="1172.32" y1="223.3" x2="1172.32" y2="228.37"/>
      <line class="cls-4" x1="1268.75" y1="223.3" x2="1268.75" y2="228.37"/>
      <line class="cls-2" x1="1252.78" y1="148.41" x2="1252.78" y2="224.72"/>
      <line class="cls-2" x1="1188.43" y1="149" x2="1188.43" y2="223.68"/>
      <line class="cls-2" x1="1204.54" y1="146.49" x2="1204.54" y2="221.03"/>
      <line class="cls-2" x1="1236.67" y1="146.49" x2="1236.67" y2="222.15"/>
      <line class="cls-2" x1="1220.6" y1="145.02" x2="1220.6" y2="221.03"/>
      <path class="cls-4" d="M1172.32,218.22c0-7.13,21.58-12.92,48.21-12.92s48.21,5.78,48.21,12.92"/>
      <path class="cls-4" d="M1172.32,203.57c0-7.13,21.58-12.92,48.21-12.92s48.21,5.78,48.21,12.92"/>
      <path class="cls-4" d="M1268.75,234.33c0-7.13-21.58-12.92-48.21-12.92s-48.21,5.78-48.21,12.92v-76.56.17c0-7.13,21.58-12.92,48.21-12.92s48.21,5.78,48.21,12.92v-.17,74.08"/>
      <path class="cls-4" d="M1172.32,189.67c0-7.13,21.58-12.92,48.21-12.92s48.21,5.78,48.21,12.92"/>
      <path class="cls-4" d="M1172.32,175.21c0-7.13,21.58-12.92,48.21-12.92s48.21,5.78,48.21,12.92"/>
      <path class="cls-8" d="M1277.69,154.66c0-8.3-25.12-15.03-56.1-15.03s-56.1,6.73-56.1,15.03c0,2.61,2.48,5.06,6.83,7.19v-4.08.17c0-7.13,21.58-12.92,48.21-12.92s48.21,5.78,48.21,12.92v-.17,5.03c5.65-2.35,8.94-5.14,8.94-8.14Z"/>
      <path class="cls-5" d="M1189.55,145.02c-.73-2.69-1.12-5.52-1.12-8.43,0-17.77,14.4-32.17,32.17-32.17s32.17,14.4,32.17,32.17c0,2.92-.39,5.75-1.12,8.43"/>
      <path class="cls-3" d="M1204.66,140.59c-.08-1.31-.12-2.65-.12-4.01,0-17.77,7.19-32.17,16.06-32.17s16.06,14.4,16.06,32.17c0,1.11-.03,2.21-.08,3.29"/>
      <line class="cls-5" x1="1220.6" y1="104.41" x2="1220.6" y2="139.62"/>
      <path class="cls-4" d="M1172.59,147.34c0-10.81,21.25-19.58,47.46-19.58s47.46,8.77,47.46,19.58"/>
      <path class="cls-4" d="M1182.77,122.39c8.69-4.55,22.16-7.46,37.28-7.46s28.81,2.97,37.49,7.58"/>
      <g>
        <path class="cls-4" d="M1267.51,146.02c-3.12-23.39-23.13-41.43-47.37-41.43s-45.01,18.72-47.54,42.74c9.59-4.6,27.93-7.71,49-7.71,18.99,0,35.77,2.53,45.92,6.4Z"/>
        <path class="cls-8" d="M1172.59,147.34c-4.52,2.17-7.1,4.66-7.1,7.32s2.48,5.06,6.83,7.19v-4.08.17c0-.4.08-.79.21-1.17-.13-1.44-.21-2.89-.21-4.36,0-1.71.09-3.4.27-5.07Z"/>
        <path class="cls-8" d="M1267.51,146.02c.28,2.09.44,4.21.44,6.38,0,1.02-.04,2.03-.11,3.03.59.81.91,1.64.91,2.5v-.17,5.03c5.65-2.35,8.94-5.14,8.94-8.14,0-3.21-3.77-6.19-10.18-8.63Z"/>
        <path class="cls-8" d="M1267.51,146.02c-10.15-3.87-26.92-6.4-45.92-6.4-21.06,0-39.4,3.11-49,7.71-.18,1.67-.27,3.35-.27,5.07,0,1.47.08,2.92.21,4.36,2.21-6.58,22.85-11.74,48-11.74,23.43,0,42.96,4.48,47.3,10.42.06-1,.11-2.01.11-3.03,0-2.16-.16-4.29-.44-6.38Z"/>
      </g>
    </g>
    <path class="cls-1" d="M1090.21,486.01c-1.23.58-2.32.47-3.53-.19-.38-.21-1.1-1.28-1.36-1-.37.41,2.2,3.38,2.83,3.78-3.79,1.36-4.8,5.92-4.63,9.32.63.5.58-.75.89-1.31.2-.35.48-.79.91-.93-.05,4.06,1.66,6.87,5.57,8.71.64.3,2.62.67,2.69,1.34.09.99-1.39,1.29-1.76,1.94-.77,1.36-1.63,4.6-2,6.19-2.1,9-3.57,20.46-2.96,29.63.14,2.09,1.13,4.43,1.24,6.19s-1.04,5.03,2.38,4.31c.08.95.07,2.45.37,3.32.22.63,1.03.88,1.17,1.53.61,2.94-.26,8.02,0,11.32.25,3.07,1.66,6.25,1.81,9.44.15,3.13-2.24,5.93-2.06,10.15.19,4.64,1.36,7.63.8,12.54-.27,2.34.83,2.44,1.02,3.74.06.4.15,3.78-.02,3.89-.19.12-.9.03-1.22.31-.74.65.23,2.46.2,3.36-.03.96-.73,2.3-.75,3.34-.07,4.04,3.76,2.7,6.79,2.94,5.25.41,7.18.63,12.61.25,1.21-.08,6.2.4,6.5-1.08.02-.11-.17-2.08-.21-2.32-.36-1.82-1.24-3.06-3.15-3.72-1.22-.42-2.79-.25-3.52-.55-.55-.23-4.62-3.67-5.11-4.29-.39-.49-.75-1.76-.69-2.34.05-.51.72-.9.86-1.45.18-.73.14-2.82-.25-3.45-.22-.36-.68-.25-.74-.74-.35-2.6.03-8.1.28-10.86.44-4.79,2.32-9.23,3.05-13.95.5-3.24.85-7.08,1.06-10.35.08-1.33-.3-4.39.04-5.39.28-.82.95-.02,1.43.04.75.1,3.32-.95,3.43-1.74s-.47-2.82-.52-3.77c-.04-.74-.15-2.63.13-3.18.18-.36.75-.52.98-1.22.39-1.15.49-4.14-1.13-4.35l.54-6.1c.32-9.25-.53-24.73-4.08-33.34-.19-.47-.56-.82-.82-1.25,2.87-1.13,4.85-4.26,4.89-7.08l.52,1.42c1.28-.9,1.21-3.42.96-4.78-.36-1.95-2.33-2.83-2.27-5.03.02-.58,2.21-3.77,1.81-4.11l-2.83.7.26-2.36c.68.11.05,1.64,1.02,1.41.27-3.96-.55-5.74-4.46-7.36-4.69-1.95-10.44-2.66-14.2,1.2-1.88,1.93-2.66,5.04-5.52,6.03l.76,1.28Z"/>
    <path class="cls-8" d="M1040.22,606.29c-136.64,16.31-121.12,29.49-258.62,46.55-247.55,30.72-341.73-6.56-610.34,20.69-69.67,7.07-128.49,16.18-171.26,23.73v70.74h1366v-172.6c-91.08-4.72-201.63-3.93-325.78,10.89Z"/>
  </g>
  <path class="cls-8" d="M1073.36,556.35s-.22-4.07,1.19-4.2c1.41-.13,4.6,5.16,5.3,5.57s3.05,1.27,3.9,2.14c.85.87,1.45,3.7,1.45,3.7,0,0,1.45,1.16,1.98,1.06s2.53,0,2.59.67c.06.67-.74,1.17-.74,1.17,0,0-1.71,1.49-2.52,1.91-.81.43-4.93,1.07-6.12,2.05-1.19.98-2.56,2.06-2.71,3.05-.16.99.25,2.07-.08,2.48-.33.41-.86.16-.86.16,0,0,.98,3.03,1.72,3.65s8.72,5.54,10.42,5.84c1.7.3,4.73.75,5.35.77.62.02,2.2-.69,2.69.11.49.8-.25,1.96-.99,2.38-.74.41-3.34,1.18-4.23.8s-1.36-1.04-2.01-.85-.52.51-1.67.25c-1.15-.26-5.33-2.83-9.53-3.68-4.2-.85-8.55-1.74-8.55-1.74,0,0,1.69-2.3,1.27-2.36-.42-.06-2.21,2.81-3.7,3.64s-2.59,1.86-2.59,1.86c-.16.99,1.9,7.52,2.37,8.18.47.66.75,1.43,1.46,1.57.71.14,2.61.05,2.92,1.3.3,1.24-3.59,1.29-4.24,1.14-.65-.15-1.74-.49-2.34-.79-.6-.3-.76-1.84-1.5-3.62-.75-1.78-4.74-8.08-4.93-8.72-.19-.65,2.25-4.05,1.9-4.47-.35-.41-1.76,2.32-2.23,2.68-.48.36-6.82,1.97-17.84-1.29-3.03-.8-5.62-.5-7.04,1.88-1.25,2.08-4.06,5.7-6.54,6.71-2.48,1.02-4.03.42-4.83,1.25-.8.84-7.34,8.64-10.28,7.21-1.63-.99-.99-2.35.21-3.26,1.2-.91,2.87-.75,3.91-1.77,1.04-1.02,3.24-3.49,3.6-4.86.36-1.37,3.82-4.08,4.51-5.85.69-1.77,1.58-5.78,1.36-5.87,0,0-1.34,3.4-2.5,4.51-1.16,1.11-1.67.93-1.67.93,0,0-.86,1.6-1.43,1.5s-.33-1.03-.33-1.03c0,0-2.57,3.77-3.58,3.89-1,.12-1-.57-1-.57,0,0-3.51,3.2-4.97,3.4-1.47.21-1.79-.76-1.79-.76,0,0-3.59,1.29-4.55.93s-.84-.8-.84-.8l-5.22.3.13-1.46s-1.16.77-1.04-.42c.12-1.19,3.35-2.55,3.35-2.55,0,0-2.17.82-1.73-.08.45-.91,8.47-3.38,12.36-7.06,3.89-3.68,11.2-11.02,18.26-12.08,8.72-1.3,24.01,2.04,26.27,1.68s6.32-1.33,6.32-1.33c0,0-1.69-.98-.24-1.26s2.97-.22,2.97-.22c0,0-2.37-.24-1.77-.69.6-.46,2.87-.4,3.62-.75.76-.35,2.96-3.16,2.96-3.16,0,0-2.27-5.87-.88-6.48s5.25,1.68,5.25,1.68Z"/>
</svg>