<?xml version="1.0" encoding="UTF-8"?>
<svg id="alasa" xmlns="http://www.w3.org/2000/svg" viewBox="0 0 160 160">
  <defs>
    <style>
      .cls-1 {
        fill: #333;
      }
    </style>
  </defs>
  <path class="cls-1" d="M24.76,83.02c33.98,2.34,68.13,3.18,102.19,2.28,4.82-.13,4.84-7.63,0-7.5-34.05.9-68.2.05-102.19-2.28-4.82-.33-4.8,7.17,0,7.5h0Z"/>
  <path class="cls-1" d="M112.46,71.66l6.2,6.39c.94.97,2.9,2.28,3.44,3.55l.98.28c-.46.77-.91,1.55-1.34,2.34-2.62,4.75-4.71,9.76-6.42,14.91-1.53,4.59,5.71,6.56,7.23,1.99,1.23-3.68,2.64-7.27,4.4-10.73,1.28-2.52,3.65-5.33,3.7-8.27s-2.08-4.61-3.94-6.53c-2.98-3.08-5.97-6.15-8.95-9.23-3.37-3.47-8.67,1.84-5.3,5.3h0Z"/>
  <path class="cls-1" d="M45.37,41.76c23.08-1.41,47.72,14.28,49.84,38.8s-23.07,43.39-46.45,43.18c-4.83-.04-4.83,7.46,0,7.5,27.29.24,56.36-21.08,53.95-50.68-2.32-28.46-29.97-47.97-57.34-46.3-4.8.29-4.83,7.8,0,7.5h0Z"/>
  <path class="cls-1" d="M59.67,109.37c2.28-19-4.88-37.92-1.48-56.83.85-4.72-6.38-6.74-7.23-1.99-3.54,19.68,3.57,39.12,1.21,58.82-.57,4.78,6.93,4.74,7.5,0h0Z"/>
</svg>