<?xml version="1.0" encoding="UTF-8"?>
<svg id="Layer_2" data-name="Layer 2" xmlns="http://www.w3.org/2000/svg" viewBox="0 0 126.3 109.81">
  <defs>
    <style>
      .cls-1 {
        fill: #333;
      }
    </style>
  </defs>
  <g id="favico-light">
    <g>
      <path class="cls-1" d="M15.83,81.06c.02-.3.06-.59.1-.88l-.26,1.91c.16-1.14.41-2.27.77-3.36.12-.38.28-.74.41-1.11-.78,2.31-.36.84-.06.26.37-.72.92-1.36,1.27-2.08-.76.96-.91,1.15-.44.58.16-.2.33-.39.51-.57.27-.29.55-.57.84-.84.2-.18.41-.36.61-.54-.91.68-1.06.81-.46.37.45-.28.89-.58,1.36-.84.33-.18.72-.31,1.03-.51-1.15.47-1.37.57-.68.31.23-.08.46-.16.69-.23.89-.27,1.8-.46,2.71-.59l-1.91.26c1.77-.22,3.53-.19,5.3.05l-1.91-.26c1.51.22,2.87.65,4.31,1.12-2.38-.77-.43-.17.24.2.55.3,1.08.62,1.59.97.26.17.5.37.77.54-1.88-1.22-.92-.73-.47-.35.52.44,1.03.9,1.51,1.39.45.45.88.91,1.29,1.4.19.23.97,1.22.14.13s-.07-.08.1.16c.73,1.03,1.39,2.11,1.96,3.23.14.28.28.56.41.84s.62,1.42.07.13-.08-.15.03.14.2.57.3.86c.38,1.18.65,2.38.83,3.6l-.26-1.91c.19,1.48.23,2.96.05,4.44l.26-1.91c-.12.87-.31,1.73-.61,2.56-.51,1.45.82-1.66.11-.3-.13.26-.56,1.26-.84,1.34.1-.03,1.31-1.47.4-.57-.19.19-.37.4-.56.59-.56.55-1.95,1.31-.02.12-.9.55-1.74,1.16-2.69,1.63-.62.31-2.34.87.07.02-.45.16-.89.34-1.33.5-.75.26-1.52.49-2.29.7-1.54.42-3.1.78-4.68,1l1.91-.26c-1.95.24-3.89.24-5.85,0l1.91.26c-1.57-.24-3.11-.64-4.61-1.14-.69-.23-2.69-1.2-.25-.02-.67-.32-1.34-.63-1.98-1-.32-.19-.62-.38-.93-.59-1.46-1,1.06.95.17.13-.6-.55-1.1-1.16-1.67-1.74,1.51,1.53.45.56.09-.06-.1-.18-.49-1.1-.58-1.11.4.99.47,1.13.2.41-.1-.29-.18-.57-.26-.87-.15-.56-.25-1.13-.33-1.7l.26,1.91c-.15-1.31-.14-2.6,0-3.9l-.26,1.91c.14-1.03.35-2.04.66-3.03.1-.32.21-.64.33-.95.48-1.35-.7,1.6-.39.9.81-1.83,1.28-3.53.72-5.54-.46-1.67-1.75-3.48-3.3-4.3-3.12-1.65-8.21-1.09-9.84,2.58-2.44,5.52-3.43,11.92-1.13,17.69,1.43,3.57,3.51,6.6,6.57,8.96,2.28,1.77,4.66,2.96,7.39,3.95,5.49,2,11.3,2.26,17,1.05,3.9-.83,7.9-2.11,11.3-4.23,2.78-1.74,5.24-4.01,6.94-6.85,1.53-2.56,2.19-5.32,2.51-8.25.55-5.1-.98-10.28-3.2-14.82-2.35-4.8-6.05-8.86-10.41-11.91-3.71-2.59-7.84-3.73-12.26-4.24-6.84-.79-14.06,1.63-18.89,6.56-4.17,4.25-6.29,9.86-6.78,15.71-.31,3.76,3.53,7.36,7.19,7.19,4.17-.19,6.85-3.17,7.19-7.19Z"/>
      <path class="cls-1" d="M54.7,19.34c.13-.17.27-.35.4-.52-1.55,2.07-.88,1.13-.53.69.31-.38.62-.76.94-1.13.76-.87,1.57-1.7,2.44-2.46.46-.39,1.39-.85-.45.31.23-.15.45-.32.68-.48.52-.35,1.05-.67,1.6-.95s1.52-.46-.44.15c.34-.11.67-.25,1.02-.35.72-.22,1.45-.36,2.2-.47l-1.91.26c1.15-.13,2.28-.12,3.42,0l-1.91-.26c.87.12,1.72.3,2.55.56.36.11.7.26,1.05.37-2.02-.64-.89-.38-.36-.11.78.4,1.5.87,2.23,1.35,1.15.75-1.3-1.14-.28-.22.32.29.65.57.96.87.57.56,1.05,1.19,1.6,1.76-1.36-1.39-.63-.83-.27-.29.24.36.47.73.69,1.11.12.21.55,1.4.73,1.45l-.38-.89c.1.27.2.55.29.82.29.93.49,1.87.63,2.84l-.26-1.91c.19,1.62.17,3.23-.03,4.84l.26-1.91c-.18,1.27-.47,2.52-.86,3.74-.16.48-.4.96-.53,1.44.01-.05.91-2.03.43-1.04-.06.13-.12.27-.18.4-.48,1-1.12,1.87-1.69,2.81,1.08-1.75.58-.73.2-.29-.23.27-.47.53-.72.78-.49.51-1.03.97-1.56,1.44-1.06.93,1.12-.8.52-.4-.23.15-.44.32-.67.47-.43.29-.86.56-1.31.81-.53.3-1.08.57-1.64.83-1.25.59,1.95-.76.66-.28-.44.17-.88.33-1.33.47-1.28.41-2.6.7-3.94.88l1.91-.26c-1.5.18-2.98.19-4.48.02l1.91.26c-.88-.12-1.75-.29-2.6-.56-.2-.06-.41-.13-.61-.2-.71-.27-.54-.19.51.23-.08-.2-1.03-.52-1.2-.62-.32-.18-.63-.38-.94-.59-.19-.13-.37-.28-.56-.4,1.99,1.21,1.07.85.54.39-.49-.42-.96-.87-1.4-1.35-.19-.21-.53-.49-.63-.75l.72.91c-.14-.19-.27-.38-.39-.58-.19-.3-.38-.62-.55-.93-.12-.22-.23-.44-.33-.67l.42,1.01c-.51-.75-.63-2.1-.75-2.96l.26,1.91c-.13-1.22-.1-2.42.04-3.64l-.26,1.91c.18-1.3.42-2.6.74-3.87.17-.68.38-1.35.61-2.01.11-.31.23-.61.35-.92.29-.79-.8,1.73-.21.53.76-1.55,1.6-3.03,2.64-4.41s1.16-3.95.72-5.54-1.75-3.48-3.3-4.3c-1.67-.88-3.69-1.32-5.54-.72s-3.11,1.73-4.3,3.3c-2.65,3.5-4.41,7.79-5.24,12.08-.67,3.47-.91,6.64-.28,10.14s2.37,6.32,4.48,8.91c6.35,7.8,17.69,9.71,26.82,6.15,3.47-1.35,6.44-3.05,9.26-5.54,3.32-2.93,5.58-6.75,7.06-10.87,1.73-4.84,2.03-10.48.6-15.43-1.71-5.93-5.79-11.01-11.01-14.24-6.26-3.88-13.81-4.31-20.49-1.34-4.78,2.13-8.11,6.08-11.19,10.14-1.05,1.38-1.16,3.95-.72,5.54.46,1.67,1.75,3.48,3.3,4.3,1.67.88,3.69,1.32,5.54.72s3.1-1.73,4.3-3.3Z"/>
      <path class="cls-1" d="M105.27,76.49c2,.92,4.01,1.85,5.91,2.95.51.29.98.62,1.47.94.26.17-1.69-1.49-.88-.67.09.09.24.3.35.36.03.02-1.38-1.93-.88-1.11s-.74-2.1-.58-1.41c.04.16.09.33.14.49.24.76.57,1.49.91,2.21.08.18.17.36.27.53.4.76-.57-1.67-.26-.54.16.57.3,1.13.4,1.72l-.26-1.91c.17,1.27.15,2.52,0,3.78l.26-1.91c-.19,1.29-.5,2.55-.92,3.79-.24.7-1.19,2.61-.01.16-.21.44-.41.89-.63,1.33-.48.94-1.02,1.86-1.62,2.73-.08.12-.17.23-.25.35-.64.91.59-.77.66-.84-.31.32-.57.7-.87,1.04-.73.82-1.55,1.51-2.37,2.24,1.93-1.7.29-.25-.33.12-.37.23-1.32.97-1.77.94l1.08-.45c-.22.09-.44.17-.67.26-.29.1-.58.2-.87.28-.82.24-1.65.41-2.49.53l1.91-.26c-1.43.17-2.84.17-4.27,0l1.91.26c-1.27-.18-2.51-.48-3.71-.92-.58-.21-1.45-.78.53.24-.23-.12-.47-.21-.7-.32-.47-.23-.94-.48-1.4-.75-.69-.41-1.45-1.19-2.19-1.46-.05-.02,1.69,1.35.94.72-.12-.1-.25-.2-.37-.3-.17-.14-.33-.28-.49-.42-.62-.53-1.21-1.09-1.76-1.69-.17-.18-.33-.38-.5-.56-.78-.89.35.31.41.56-.14-.56-.92-1.34-1.21-1.86-.17-.29-.32-.59-.47-.9-.5-1.02,0-.2.13.34-.07-.31-.23-.62-.33-.92-.37-1.11-.63-2.24-.79-3.39l.26,1.91c-.16-1.36-.15-2.7.03-4.06l-.26,1.91c.09-.53.19-1.05.33-1.56.09-.31.72-1.96.13-.57s0,.03.15-.24.29-.51.45-.76c.34-.52,1.03-1.12-.41.47.22-.24.41-.5.62-.74.53-.6,1.1-1.18,1.67-1.75,1.28-1.28,2.6-2.51,3.91-3.75.96-.91-1.44.95-.4.29.26-.16.53-.32.78-.49,1-.66-1.72.54-.62.24.3-.08.59-.18.89-.23l-1.91.26c.7-.08,1.41-.02,2.11.07l-1.91-.26c2.22.31,4.41.91,6.55,1.57,1.08.34,2.16.7,3.23,1.08.42.15.84.31,1.26.48.02,0,.66.28.66.27-.02.02-2.06-.89-.97-.4,1.81.82,3.55,1.27,5.54.72,1.67-.46,3.48-1.75,4.3-3.3,1.66-3.15,1.08-8.19-2.58-9.84-4.24-1.91-8.78-3.55-13.38-4.33-2.77-.47-5.48-.81-8.17.26-3.48,1.38-6.06,3.83-8.69,6.42-2.03,2-4.19,4.14-5.49,6.71-1.73,3.42-2.62,7.31-2.25,11.14.58,6.05,3.04,11.73,7.4,16.04,3.03,2.99,6.58,5.22,10.52,6.78,6.31,2.49,13.42,1.84,19.41-1.21,4.06-2.07,7.4-5.51,9.87-9.3,1.97-3.03,3.52-6.63,4.14-10.18.77-4.41.51-8.43-1.34-12.56-.13-.28-.24-.57-.4-.83-.33-.56.62,1.61.61,1.48,0-.1-.08-.23-.11-.33-.22-.79-.52-1.61-.92-2.32-2.25-4-7.27-5.96-11.21-7.77-1.8-.83-3.56-1.27-5.54-.72-1.67.46-3.48,1.75-4.3,3.3-1.67,3.17-1.07,8.16,2.58,9.84Z"/>
    </g>
  </g>
</svg>