<?xml version="1.0" encoding="UTF-8"?>
<svg id="walo" xmlns="http://www.w3.org/2000/svg" viewBox="0 0 160 160">
  <defs>
    <style>
      .cls-1 {
        fill: #333;
      }
    </style>
  </defs>
  <path class="cls-1" d="M35.17,125.28c12.07-30.74,26.82-60.35,43.97-88.58h-8.63c15.68,31.37,42.18,57.01,52.75,90.95,1.61-2.11,3.21-4.22,4.82-6.33-31.21-3.84-62.61-3.45-93.75.82-6.35.87-3.65,10.51,2.66,9.64,30.2-4.14,60.86-4.18,91.09-.46,3.22.4,5.7-3.51,4.82-6.33-10.88-34.92-37.65-61.11-53.76-93.34-1.73-3.46-6.79-3.03-8.63,0-17.6,28.98-32.59,59.41-44.98,90.97-2.35,5.99,7.31,8.59,9.64,2.66h0Z"/>
  <path class="cls-1" d="M25.91,61.46c4.76,6.99,10.57,12.85,17.48,17.71,5.28,3.71,10.28-4.96,5.05-8.63s-10.15-8.63-13.89-14.12-12.27-.29-8.63,5.05h0Z"/>
  <path class="cls-1" d="M107.7,78.07c6.91-5.88,13.82-11.76,20.72-17.65,4.91-4.18-2.2-11.22-7.07-7.07-6.91,5.88-13.82,11.76-20.72,17.65-4.91,4.18,2.2,11.22,7.07,7.07h0Z"/>
</svg>