<?xml version="1.0" encoding="UTF-8"?>
<svg id="pimeja" xmlns="http://www.w3.org/2000/svg" viewBox="0 0 160 160">
  <defs>
    <style>
      .cls-1 {
        fill: #f6f6f6;
      }
    </style>
  </defs>
  <path class="cls-1" d="M62.12,31.93c-7.95,13.66-14.88,27.88-20.71,42.57-5.81,14.62-9.39,30.28-16.75,44.24-1.8,3.42.45,7.37,4.32,7.52,35.09,1.4,70.19,2.79,105.28,4.19,4.09.16,5.82-4.29,4.32-7.52-4-8.6-10.51-15.44-16.59-22.59-6.44-7.58-11.97-15.85-17.29-24.24-10.26-16.17-19.96-32.81-33.34-46.67-4.48-4.64-11.54,2.44-7.07,7.07,13.18,13.66,22.53,30.18,32.68,46.07,4.9,7.67,10.04,15.2,15.8,22.27,6.11,7.5,13.04,14.26,17.18,23.15,1.44-2.51,2.88-5.02,4.32-7.52-35.09-1.4-70.19-2.79-105.28-4.19,1.44,2.51,2.88,5.02,4.32,7.52,7.21-13.69,10.89-28.82,16.41-43.2,5.8-15.1,12.91-29.65,21.05-43.62,3.24-5.57-5.39-10.61-8.63-5.05h0Z"/>
  <path class="cls-1" d="M42.22,79.64c16.7,15.1,39.01,25.14,50.6,45.24,3.21,5.57,11.86.54,8.63-5.05-12.17-21.1-34.68-31.45-52.17-47.26-4.76-4.31-11.86,2.74-7.07,7.07h0Z"/>
  <path class="cls-1" d="M53.1,124.01c12.06-19.94,26.23-38.4,42.39-55.18,4.47-4.64-2.6-11.72-7.07-7.07-16.73,17.38-31.48,36.56-43.95,57.21-3.34,5.52,5.31,10.55,8.63,5.05h0Z"/>
</svg>